<?xml version="1.0" encoding="utf-8"?><!DOCTYPE svg PUBLIC "-//W3C//DTD SVG 1.1//EN" "http://www.w3.org/Graphics/SVG/1.1/DTD/svg11.dtd"><svg id="user" width="256" height="256" style="width:256px;height:256px;" version="1.1" xmlns="http://www.w3.org/2000/svg" viewBox="0 0 1024 1024" enable-background="new 0 0 1024 1024" xml:space="preserve"><path fill="#666" d="M904.15 994.56 l0 -4.2 l0 -4.21 q-14.72 -126.16 -96.72 -222.88 q-84.11 -96.72 -206.07 -136.67 q82.01 -42.06 132.47 -121.96 q50.47 -77.8 50.47 -174.52 q0 -136.67 -96.73 -233.4 q-98.82 -96.72 -235.5 -96.72 q-136.67 0 -233.39 96.72 q-98.83 96.73 -98.83 233.4 q0 96.72 52.57 176.62 q50.46 79.9 130.36 119.86 q-121.95 39.95 -203.95 136.67 q-82.01 96.72 -96.73 220.78 q-2.1 2.1 -2.1 4.2 l0 6.31 q0 12.62 10.51 21.03 q8.41 8.41 18.93 8.41 q12.61 0 23.13 -8.41 q8.41 -8.41 8.41 -23.13 l-2.11 -2.1 q16.83 -119.85 121.96 -218.68 q103.03 -96.72 233.4 -111.44 l18.92 0 q10.51 2.1 18.92 2.1 q10.52 0 21.03 -2.1 l16.82 0 q130.37 14.72 235.5 111.44 q103.03 96.72 119.85 218.68 l-2.1 2.1 l2.1 2.1 q0 12.62 8.41 21.03 q8.41 8.41 21.03 8.41 q12.62 0 21.03 -8.41 q8.41 -8.41 8.41 -21.03 l0 0 ZM452.07 601.36 q-111.44 0 -191.34 -79.9 q-79.9 -77.8 -79.9 -191.34 q0 -111.44 79.9 -191.34 q79.9 -79.91 191.34 -79.91 q113.55 0 193.45 79.91 q77.8 79.9 77.8 191.34 q0 113.54 -77.8 191.34 q-79.9 79.9 -193.45 79.9 l0 0 Z"/></svg>